<?xml version="1.0" encoding="UTF-8" standalone="no"?>
<svg xmlns:rdf="http://www.w3.org/1999/02/22-rdf-syntax-ns#" xmlns="http://www.w3.org/2000/svg" version="1.1" xmlns:cc="http://creativecommons.org/ns#" xmlns:dc="http://purl.org/dc/elements/1.1/" viewBox="0 0 150 150" height="150" width="150">
 <g transform="matrix(.49333 0 0 .49333 1.0909 1.1818)">
  <path fill="#900" d="m150 300c-82.839 0-150-67.154-150-150-0.000049345-82.839 67.16-150 150-150 82.846 0 150 67.161 150 150 0 82.846-67.154 150-150 150"/>
  <path fill="#edebeb" d="m292.07 150c0-78.464-63.606-142.07-142.07-142.07s-142.07 63.606-142.07 142.07 63.606 142.07 142.07 142.07 142.07-63.606 142.07-142.07"/>
  <path d="m150 262.24c-61.985 0-112.23-50.257-112.23-112.24 0-61.985 50.243-112.23 112.23-112.23 61.985 0 112.24 50.243 112.24 112.23 0 61.978-50.25 112.24-112.24 112.24" stroke="#900" stroke-width="2.5" fill="none"/>
  <path fill="#900" d="m250.11 163.02-7.4569-8.4516-6.9213-0.42432 3.9649-4.7579-4.1736-4.7023 7.3456-0.36867 7.3943-8.2429-9.3559-5.2866-6.97 1.266 2.6433-5.8083-4.9666-3.4919 6.81-2.219 5.3909-9.4046-10.622-3.172-6.2813 3.2206 1.1616-6.3926-5.8152-1.899 5.7596-3.645 2.8033-10.838-11.262-0.25737-4.911 4.5423-0.31998-5.8709-6.4969-0.68169 4.8066-5.4466-0.31303-11.095-11.151 2.219-3.805 5.8639-1.426-5.3353-6.5039 0.89733 3.2763-6.2883-3.172-10.671-10.142 4.911-2.066 6.5526-3.5337-5.071-5.9196 2.4833 1.3216-6.8726-5.2379-9.2446-8.2916 7.6099-0.42432 6.8656-4.8623-4.0693-4.9666 4.1249-0.42432-7.0326-7.6586-7.443-5.5022 9.4046 1.3216 6.6013-5.704-2.7476-3.4363 5.1822-2.219-6.6082-10.198-5.0223-2.9076 11.046 2.8033 5.8639-5.8152-1.0573-2.1633 5.6553-3.7076-5.5996-10.935-2.9563v11.937l4.1249 4.5979-5.8152 0.67474-1.1269 6.1909-4.8692-4.5006-10.879 0.18086 2.6085 10.928 5.5509 3.5963-5.8083 2.4277 0.78603 5.7596-5.6553-2.9076-10.935 3.3319 5.2866 9.6689 6.6013 2.219-5.1753 3.3876 2.852 6.0726-6.6082-1.426-9.8845 6.0239 8.1942 7.9786 6.4482 0.26433-3.805 4.5423 3.9649 4.3336-6.3996 0.26433-8.6603 9.0916 10.566 5.1266 6.5526-1.266-2.5876 5.9196 4.911 2.852-6.337 2.059-5.3422 10.302 10.991 2.379 5.9196-2.9563-0.94602 6.0239 5.4396 2.059-5.4396 3.7563-3.0676 11.199 11.839-0.25738 4.5423-4.3406 0.84864 6.6013 5.8083 0.32693-4.118 4.9596 0.15303 11.79 10.782-3.1233 3.8536-5.8083 2.1703 5.6552 6.0796-1.426-2.9076 6.1283 2.2746 11.255 10.302-5.7109 2.1146-6.6569 3.805 5.2309 5.4396-2.6363-1.3216 6.6569 6.0239 9.9332 7.5056-8.2429 0.42432-6.6013 4.1736 3.645 4.7579-3.7006 0.31303 6.3439 7.7699 8.4516 5.5509-9.6132-1.3216-6.9282 6.1283 2.6433 3.2763-5.0779 2.2746 6.4482 10.406 5.6066 3.4363-11.102-3.3806-6.3926 5.8152 1.586 1.9546-5.9683 3.3806 5.704 11.568 3.0606-0.10434-11.568-4.8623-5.2866 6.4482-0.36867 0.10434-6.177 5.0223 4.5353 11.575 0.68865-3.1163-11.311-5.9196-3.6937 6.0239-2.1146-1.0017-6.2883 6.6569 3.1163 10.622-2.5876-5.0779-10.302-7.2343-2.3303 5.1266-3.2206-2.379-5.9196 6.8656 1.3773 9.3072-4.9179z"/>
  <path fill="#edebeb" d="m207.06 159.07v3.6171l24.972 4.7927 1.732 4.1249-3.8884 2.532-22.816-7.3108v3.5615l29.8 9.2794 3.7006 7.2691-7.6864 1.8294-25.814-12.723v3.8189l17.091 8.2429 0.75125 4.5979-4.5423 1.6416-13.3-8.7159v4.1319l18.413 11.519 2.1077 7.7768-7.8325-0.50779-19.553-17.487h-4.9805l16.423 14.67v4.6397l-4.8692 0.18781-7.9508-8.5838v4.7927l11.178 11.992 0.0557 7.9716-8.1107-2.1077-4.7997-7.4986h-3.8884l1.9338 2.9494-1.3564 3.9371-4.1249-1.0295-3.0954-5.857h-3.791l7.7282 14.573-2.4416 7.7351-7.589-3.9789-5.9544-18.329h-3.3667l3.8815 11.853-2.532 4.0345-4.591-2.1077-2.7755-13.78h-3.2972l4.5284 22.308-3.8467 6.5665-5.2936-5.6274-1.3077-23.247h-3.0676l0.81385 15.839-3.4293 2.6294-3.0885-2.5807 0.43127-15.888h-3.0607l-0.98775 23.296-5.2449 5.6274-4.0762-6.8447 4.4936-22.078h-3.332l-2.9911 13.919-3.8884 2.0103-2.6294-3.8397 3.805-12.09h-3.4572l-5.9265 18.28-7.2621 4.264-1.5025-8.0134 7.1578-14.531h-3.9023l-3.0676 6.2326-4.264 1.0295-1.4956-4.1249 1.9964-3.1372h-3.9093l-4.8901 7.7838-7.7768 2.3859-0.14608-8.2499 10.796-12.43v-4.7232l-8.1664 9.328-4.5006-0.19477-0.46606-5.3422 16.006-14.622h-5.2866l-18.552 17.717-8.1107 0.14608 2.2051-7.8812 19.185-12.883v-4.0136l-14.496 10.051-4.3127-1.5929 0.89037-4.7301 17.919-8.9385v-3.5406l-26.078 13.37-7.8255-1.5929 3.798-7.3595 30.106-9.2168v-3.478l-23.734 7.443-3.7493-2.1564 1.9199-4.3128 25.563-5.0849v-3.3041l-33.716 6.8378-7.596-3.6102 6.1422-6.5108 35.17-1.3564v-3.0467l-27.713 1.1199-3.1859-3.4224 2.9494-3.4224 27.949 1.732v-3.5128l-35.17-1.4955-5.9544-5.6274 6.9421-4.1736 34.182 7.123v-3.485l-25.842-5.1822-2.3929-4.5492 3.9441-2.4833 24.29 7.5056v-3.4085l-30.767-9.7176-3.7006-6.6569 7.6447-2.3929 26.822 13.717v-3.7493l-18.767-9.0776-0.51475-4.6884 4.1736-1.732 15.109 9.9819v-4.2084l-19.658-12.667-1.8712-7.7838h7.5473l19.929 18.364h4.9736l-17.119-15.547 0.65387-4.6466 4.5006-0.46605 18.559 20.659h4.3614l-25.355-28.297 0.12521-8.2707 7.6029 2.0799 22.802 34.488h3.7354l-19.741-29.8 1.4538-4.2154 4.0345 0.60518 18.712 33.41h2.4833l-21.251-41.681 2.2746-7.6377 7.0465 3.5893 14.9 45.729h3.1511l-2.6642-8.382h-2.7407v-8.6394l-7.1021-22.294 2.4903-3.7006 3.9371 1.9686 3.3319 14.983h3.2693l-4.7371-23.205 3.7563-6.4413 5.224 5.224 1.7668 24.423h3.2276l-1.0782-16.861 3.5198-2.9563 3.5615 2.9563-0.96688 16.861h3.2485l1.3703-24.45 5.8152-5.3005 3.6589 6.5665-4.9457 23.184h3.158l3.2832-14.942 4.4101-1.8225 2.4346 3.5128-7.1995 21.758v9.175h-3.0328l-2.7755 8.382h3.3458l15.241-45.263 7.3108-3.6102 2.1564 7.4499-21.223 41.423h3.6797l17.077-32.895 4.4032-0.70256 0.98775 4.0345-19.039 29.563h3.7076l22.503-34.488 7.7351-1.4538 0.37563 7.6934-25.174 28.248h4.2849l17.703-19.957 4.8762 0.37563 0.22954 4.5979-16.701 14.983h5.3353l19.199-17.94 7.7282 0.18781-1.8225 7.4499-19.303 12.09v3.9441l14.469-8.7646 4.271 1.1269-0.93907 4.6884-17.8 8.9385v3.7284l26.28-13.328 7.3664 2.0659-3.7076 6.6082-29.939 9.335v3.2624l23.428-7.0673 3.4224 2.3929-1.9268 4.591-24.923 4.7997v2.9911l33.41-6.2883 6.4691 3.6102-5.1614 5.7596-34.718 1.6277v3.6032l26.85-1.4329 3.0398 3.3319-3.1859 3.6589-26.704-1.5721v3.2763l34.578 1.8086 5.2518 5.8083-6.3717 3.3319-33.459-6.6778z"/>
  <path fill="#900" d="m207.06 191.06h-49.304v1.8851h-14.559v-1.8851h-48.824v-82.937h48.824v-2.3233h14.559v2.3233h49.304v82.937z"/>
  <path fill="#edebeb" d="m97.363 111.03v76.857h4.291v-76.857h-4.291zm9.8906 0v76.857h39.99l3.166-5.4473 3.2559 5.4473h40.338v-76.857h-39.873l-3.4297 5.8984-3.5254-5.8984h-39.922zm92.168 0v76.857h4.291v-76.857h-4.291z"/>
  <path fill="#900" d="m155.16 12.6-13.752 0.21484 0.30664 18.697 14.189-0.22852-0.0566-3.3047-10.363 0.16797-0.0762-4.8418 9.1113-0.14648-0.0547-3.3105-9.1133 0.14453-0.0547-3.9297 9.9121-0.16016-0.0488-3.3027zm7.6035 0.48633-2.748 18.496 3.791 0.56445 1.0703-7.2422 3.9941 0.5918c2.8589 0.42432 2.8659 1.4261 2.4902 3.9512-0.27824 1.906-0.27279 2.8856-0.14063 3.7969l4.2715 0.64062 0.0762-0.49414c-0.77908-0.43128-0.67493-1.0988-0.27148-3.8047 0.50778-3.4502-0.22831-4.1378-1.6543-5.0352 1.9199-0.3478 3.2135-1.9493 3.5195-3.9805 0.2365-1.5999-0.1259-5.3614-5.0508-6.0918l-9.3477-1.3926zm-26.385 0.03711-4.0137 0.64648-1.7676 14.629-0.0488 0.01367-6.2051-13.355-4.1445 0.66797 9.1953 17.459 3.6738-0.58984 3.3106-19.471zm29.695 3.7188 4.8203 0.7168c2.2677 0.33389 2.4898 1.8434 2.3438 2.8242-0.27128 1.8294-1.3569 2.3792-3.3672 2.0801l-4.5273-0.67383 0.73047-4.9473zm-49.713 0.04297-3.7695 1.0156 4.8828 18.051 3.7695-1.0156-4.8828-18.051zm71.109 0.86914c-3.6595-0.12427-5.1767 2.2742-5.6797 3.8906-1.2243 3.9302 1.3621 5.4397 4.0332 7.0117l1.7754 1.043c1.7529 1.0364 2.9762 1.8217 2.5449 3.2129-0.59126 1.892-2.6843 1.7038-4.4512 1.1543-3.2554-1.0156-3.1661-3.0589-2.8809-4.0605l-3.582-1.1133c-0.68865 2.212-0.7296 6.3156 5.7812 8.3398 1.5651 0.48692 7.1771 1.7177 8.8535-3.6523 0.99472-3.2067-0.93178-4.8975-3.1855-6.2539l-4.0137-2.4199c-0.6956-0.40345-1.7379-1.0639-1.3066-2.4551 0.50083-1.6138 2.3505-1.6151 3.7695-1.1699 3.2624 1.0086 2.9633 2.9984 2.8242 3.8262l3.5762 1.1074c0.66082-2.1912 0.30448-6.2274-5.1699-7.9316-1.0864-0.3378-2.0442-0.50062-2.8887-0.5293zm-80.662 1.7344-3.3867 1.3496 4.8203 12.096-0.0488 0.02148-11.713-9.3496-3.8203 1.5234 6.9219 17.369 3.3867-1.3496-4.9375-12.381 0.04883-0.02734 12.025 9.5645 3.6328-1.4473-6.9297-17.369zm95.051 3.4512-7.3945 17.174 3.5879 1.5449 7.3945-17.174-3.5879-1.5449zm7.6055 3.2031-1.6133 2.8867 4.9395 2.7539-7.5059 13.439 3.416 1.9062 7.498-13.439 4.9316 2.748 1.6211-2.8867-13.287-7.4082zm-123.2 2.1719-3.4082 2.0586 6.3711 10.545c1.1756 1.9338 0.91158 3.6177-1.377 5.002-1.5651 0.94602-3.4505 0.75047-4.793-1.4824l-6.2812-10.385-3.4082 2.0664 6.4141 10.607c1.0086 1.579 2.1291 2.665 3.5898 3.1172 2.3859 0.72343 4.7842-0.24439 6.252-1.1348 4.0345-2.4346 5.4815-5.7729 2.9355-9.9883l-6.2949-10.406zm142.66 9.6465-16.479 11.061 3.3047 2.4492 3.3457-2.3242 5.543 4.1035-1.3281 3.8125 3.4082 2.5254 5.8301-18.949-3.625-2.6777zm-0.75 4.6895 0.041 0.0332-2.5312 7.3184-3.834-2.8301 6.3242-4.5215zm11.023 3.1758-2.3027 2.3711 4.0469 3.9375-10.725 11.039 2.8027 2.7207 10.727-11.039 4.0547 3.9434 2.3027-2.373-10.906-10.6zm13.242 13.504-14.268 12.074 2.5176 2.9844 14.273-12.082-2.5234-2.9766zm-202.99 0.885c-1.7829-0.08827-3.8931 0.6462-5.9121 3.1582-3.798 4.7301-1.6344 7.9032-0.01367 9.2109 3.2137 2.5737 5.5643 0.72346 8.0059-1.1895l1.6211-1.2734c1.6068-1.2521 2.788-2.1007 3.9219-1.1895 1.5442 1.2382 0.60502 3.1226-0.55664 4.5625-2.1355 2.6642-3.9993 1.8303-4.834 1.1973l-2.3438 2.9219c1.8086 1.4538 5.6059 2.9972 9.877-2.3242 1.0295-1.273 4.2291-6.0506-0.16016-9.5703-2.6155-2.1077-4.8956-0.93387-6.9824 0.66602l-3.7227 2.8535c-0.633 0.49388-1.6268 1.2385-2.7676 0.32031-1.3147-1.0643-0.63414-2.7828 0.29102-3.9375 2.1425-2.6642 3.8753-1.6698 4.5918-1.2246l2.3516-2.9297c-0.79-0.619-1.979-1.185-3.366-1.253zm208.17 8.6191c-1.3146-0.02185-2.4454 0.47615-3.2031 0.98438-3.4154 2.2885-2.3588 5.0846-1.2598 7.9922l0.73046 1.9199c0.70951 1.906 1.1685 3.2966-0.0488 4.1035-1.6416 1.106-3.1502-0.36115-4.1797-1.8984-1.899-2.8311-0.542-4.3686 0.30664-4.9668l-2.0879-3.1152c-1.9268 1.2869-4.5421 4.4519-0.74414 10.121 0.91124 1.3634 4.508 5.849 9.1894 2.7188 2.7824-1.8712 2.3446-4.3958 1.4473-6.8652l-1.6074-4.4102c-0.27824-0.75125-0.68886-1.9205 0.52149-2.7344 1.4121-0.93906 2.853 0.22972 3.6738 1.4609 1.899 2.8311 0.42986 4.1946-0.20313 4.7441l2.0879 3.1172c1.892-1.2938 4.1449-4.66 0.95899-9.418-1.8977-2.8368-3.8918-3.7258-5.582-3.7539zm-221.1 5.002-2.101 3.297 15.756 10.064 2.099-3.297-15.754-10.064zm-2.5781 9.9805c-2.0361-0.06282-4.4938 0.90427-6.2441 4.4336-2.692 5.4327 0.10453 8.069 1.9688 8.9941 3.6937 1.8225 5.592-0.48603 7.5605-2.8789l1.3086-1.5938c1.3008-1.5651 2.2743-2.6489 3.582-2.002 1.7738 0.87646 1.2583 2.9137 0.4375 4.5762-1.5164 3.0537-3.5188 2.6433-4.4648 2.2051l-1.6699 3.3594c2.0799 1.0295 6.1284 1.7257 9.1543-4.3887 0.72343-1.4747 2.8233-6.8231-2.2129-9.3203-3.012-1.4886-4.9874 0.14596-6.6777 2.1562l-3.0254 3.5879c-0.50779 0.61909-1.3212 1.5512-2.6289 0.9043-1.5164-0.75125-1.2253-2.5796-0.56445-3.9082 1.5164-3.0607 3.4297-2.4638 4.2227-2.1855l1.6621-3.3594c-0.64561-0.31085-1.4827-0.55152-2.4082-0.58008zm110.9 1.8516v7.5117c0.0348 1.1408 0.27264 2.0524 0.88477 2.748 1.0156 1.1199 2.5592 1.377 3.5957 1.377 2.8659 0 4.6602-1.2795 4.6602-4.2637v-7.373h-2.4141v7.4707c0 1.3703-0.66635 2.1621-2.2871 2.1621-1.106 0-2.0254-0.69442-2.0254-2.2734v-7.3594h-2.4141zm-9.5059 0.002v11.332h8.0137v-2.0527h-5.6426v-9.2793h-2.3711zm20.033 0 3.457 5.5371-3.6602 5.7949h2.7617l2.2891-3.8691 2.1484 3.8691h2.8867l-3.6934-5.8867 3.457-5.4453h-2.7266l-2.0723 3.6582-2.0176-3.6582h-2.8301zm-15.979 14.076 1.8633 8.3809h1.9277v-2.3301h0.38867l-1.2305-6.0508h-2.9492zm6.6367 0 0.4375 6.0508h3.0332l-0.39062-6.0508h-3.0801zm5.9668 0-0.34766 6.0508h3.2773l0.33399-6.0508h-3.2637zm6.3789 0-1.2871 6.0508h0.64844v2.3301h1.8496l1.8438-8.3809h-3.0547zm-135.84 1.1387-1.0781 3.4844 12.432 3.8613-0.01367 0.0488-14.637 3.2266-1.2168 3.9297 17.855 5.5449 1.0781-3.4785-12.729-3.957 0.01367-0.0488 14.996-3.332 1.1621-3.7285-17.863-5.5508zm253.12 5.4766c-0.66692-0.0238-1.2824 0.0736-1.7832 0.21094-3.9719 1.099-3.8479 4.0901-3.7226 7.1855l0.084 2.0586c0.0696 2.0381 0.0692 3.4913-1.3359 3.8809-1.906 0.52866-2.8861-1.3354-3.373-3.123-0.91124-3.2902 0.86271-4.3111 1.8574-4.6172l-0.99414-3.6113c-2.2398 0.61213-5.712 2.7898-3.8965 9.3633 0.43127 1.586 2.4356 6.976 7.8613 5.4805 3.2346-0.89733 3.6175-3.4362 3.541-6.0586l-0.13282-4.6953c-0.0348-0.79995-0.0555-2.0373 1.3496-2.4199 1.6347-0.45215 2.6298 1.1061 3.0332 2.5391 0.90429 3.2902-0.9182 4.1175-1.6973 4.4375l1 3.6172c2.1981-0.63301 5.4062-3.1156 3.8828-8.6387-1.2104-4.3823-3.6731-5.538-5.6738-5.6094zm-162.28 13.64v3.1855h5.3144v-3.1855h-5.3144zm9.4961 0v3.1855h10.064v-3.1855h-10.064zm14.447 0v3.1855h7.1856v-3.1855h-7.1856zm18.9 0.084v3.1856h12.256v-3.1856h-12.256zm16.609 0v3.1856h15.006v-3.1856h-15.006zm-156.26 2.02-1.953 13.62l18.51 2.6582 2.0098-14.051-3.2695-0.47461-1.4746 10.262-4.793-0.6836 1.2949-9.0215-3.2773-0.47266-1.2871 9.0215-3.8945-0.55664 1.4043-9.8203-3.2695-0.4746zm267.06 2.0488-18.441 3.0684 0.64063 3.8535 18.447-3.0684-0.64648-3.8535zm-170.2 4.9727v3.1856h8.3125v-3.1856h-8.3125zm12.5 0v3.1856h18.566v-3.1856h-18.566zm30.273 0v3.1856h21.027v-3.1856h-21.027zm25.424 0v3.1856h6.1992v-3.1856h-6.1992zm95.129 4.1191c-0.31643-0.007-0.63445-0.002-0.95312 0.0137-6.5526 0.31998-9.58 4.5639-9.3574 9.0645 0.16695 3.4015 1.9277 4.7504 3.1172 5.6894l-2.3164 0.5 0.125 2.6016 10.064-0.49414-0.38086-7.8047-3.1445 0.1543 0.20898 4.3477c-3.8119-0.62605-4.2864-3.4725-4.3281-4.3281-0.13217-2.6502 1.0575-5.5015 6.1562-5.752 4.7858-0.22955 6.8394 2.2469 6.9785 5.0293 0.1252 2.7616-2.1435 4.2015-2.8809 4.2363l0.19532 3.9024c2.5668-0.33389 6.1767-2.7752 5.8984-8.5-0.26737-5.9018-4.6364-8.5576-9.3828-8.6602zm-163.33 4.082v3.1856h12.209v-3.1856h-12.209zm16.486 0v3.1856h14.58v-3.1856h-14.58zm26.287 0v3.1856h7.0039v-3.1856h-7.0039zm11.373 0v3.1856h3.7559v-3.1856h-3.7559zm8.0547 0v3.1856h12.195v-3.1856h-12.195zm-142.86 4.6777-18.697 0.30664 0.0625 3.6445 13.014-0.21485 0.0078 0.0547-12.904 7.6309 0.07031 4.1191 18.691-0.30664-0.04883-3.6445-13.336 0.21484v-0.0547l13.203-7.8398-0.0625-3.9102zm80.662 4.3223v3.1856h6.4356v-3.1856h-6.4356zm10.77 0v3.1856h10.078v-3.1856h-10.078zm14.342 0v3.1856h5.9551v-3.1856h-5.9551zm17.662 0v3.1856h18.121v-3.1856h-18.121zm22.475 0v3.1856h9.1484v-3.1856h-9.1484zm-65.248 8.2988v3.1934h18.254v-3.1934h-18.254zm22.629 0v3.1934h8.4375v-3.1934h-8.4375zm20.152 0v3.1934h10.613v-3.1934h-10.613zm14.969 0v3.1934h16.646v-3.1934h-16.646zm95.764 0.24219-0.27148 3.8945 18.648 1.3086 0.2793-3.9023-18.656-1.3008zm-233.84 5.0938-17.293 9.6973 0.77148 4.4375 19.561 3.3613-0.70312-4.0488-4.0195-0.62695-1.1836-6.7949 3.5898-1.8438-0.72266-4.1816zm233.29 2.8418-2.2617 13.008 3.332 0.57617 1.5938-9.1602 15.088 2.6211 0.66797-3.8457-18.42-3.1992zm-152.96 1.0117v3.1934h6.0664v-3.1934h-6.0664zm10.365 0v3.1934h12.953v-3.1934h-12.953zm17.279 0v3.1934h3.4219v-3.1934h-3.4219zm15.129 0v3.1934h7.0039v-3.1934h-7.0039zm11.373 0v3.1934h8.959v-3.1934h-8.959zm13.301 0v3.1934h6.9492v-3.1934h-6.9492zm-153.64 3.7988 0.82226 4.6953-7.7012-1.0918-0.0059-0.0488 6.8848-3.5547zm86.189 4.2207v3.1856h14.316v-3.1856h-14.316zm18.643 0v3.1856h12.424v-3.1856h-12.424zm24.131 0v3.1856h14.51v-3.1856h-14.51zm18.865 0v3.1856h12.758v-3.1856h-12.758zm88.357 6.4785-3.9941 12.584 3.2207 1.0293 2.8184-8.8613 14.594 4.6328 1.1816-3.7227-17.82-5.6621zm-226.3 1.5879-17.934 5.3008 1.1055 3.748 17.934-5.3066-1.1055-3.7422zm-2.6172 8.8984c-1.7129 0.0651-3.415 0.53874-4.8027 1.123-3.2624 1.3703-7.7005 4.6546-5.252 10.463l3.1992 7.6094 17.23-7.2559-3.1367-7.4629c-1.4999-3.5563-4.3835-4.5851-7.2383-4.4766zm77.041 2.2656-7.0176 8h4.0762l6.9551-8h-4.0137zm8.8828 0-5.0215 8h4.0547l5.0918-8h-4.125zm7.1797 0-3.9316 8h3.9238l3.9434-8h-3.9355zm7.0664 0-2.5879 8h3.2774l2.5098-8h-3.1992zm6.3164 0-1.7188 8h3.1387l1.2441-6.1211h-0.47265v-1.8789h-2.1914zm16.744 0v1.8789h-0.7793l1.2383 6.1211h3.332l-1.6074-8h-2.1836zm4.9238 0 2.6152 8h3.4024l-2.6016-8h-3.416zm6.3223 0 4.2441 8h3.8262l-4.2305-8h-3.8398zm7.1582 0 5.252 8h4.1816l-5.1211-8h-4.3125zm8.0137 0 7.457 8h4.4863l-7.4082-8h-4.5352zm-149.37 1.5918c1.7857-0.11046 3.3887 0.47242 4.1582 2.3027l1.4746 3.5059-11.275 4.7441-1.4531-3.4512c-0.65387-1.5373-1.2656-4.131 3.8262-6.2734 1.0617-0.44606 2.1981-0.76186 3.2695-0.82813zm110.78 0.28711-0.26367 6.1211h2.7832l0.16602-6.0801 2.9492-0.041h-5.6348zm6.0606 0 0.3125 6.1211h2.998l-0.34179-6.1211h-2.9688zm108.96 2.1836c-0.37747 0.0162-0.74852 0.0732-1.1172 0.17578-2.3998 0.68169-3.8961 2.7908-4.6543 4.3281-2.0729 4.2362-1.4885 7.8239 2.9356 9.9941l10.922 5.3574 1.752-3.582-11.061-5.4121c-2.0381-1.0086-2.7185-2.56-1.543-4.9668 0.8069-1.6347 2.4957-2.4915 4.8398-1.3438l10.895 5.3438 1.752-3.582-11.129-5.4551c-1.2782-0.58432-2.4594-0.90601-3.5918-0.85743zm-69.854 7.2441c-3.6728 0-4.3535 2.2262-4.3535 3.4922 0 2.4903 1.7741 2.8999 3.6035 3.3242l1.2109 0.28516c1.2034 0.2852 2.0508 0.51588 2.0508 1.4062 0 1.2034-1.2453 1.4668-2.3652 1.4668-2.0659 0-2.3845-1.204-2.3984-1.8301h-2.2754c0 1.4051 0.70882 3.7852 4.8477 3.7852 0.99472 0 4.4668-0.30053 4.4668-3.709 0-2.0312-1.4186-2.6624-2.9629-3.0449l-2.7695-0.68165c-0.47302-0.10434-1.1953-0.30017-1.1953-1.1836 0-1.0225 1.0695-1.3555 1.9668-1.3555 2.0729 0 2.2616 1.1953 2.3242 1.7031h2.2754c-0.0139-1.3843-0.94777-3.6582-4.4258-3.6582zm-28.115 0.29883v11.332h2.373v-11.332h-2.373zm16.088 0-4.0352 11.33h2.4902l0.78711-2.3301h4.1797l0.73047 2.3301h2.5742l-4-11.33h-2.7266zm-72.518 0.002v11.332h8.6055v-2.0117h-6.2891v-2.9356h5.5293v-2.002h-5.5293v-2.3789h6.0176v-2.0039h-8.334zm9.4707 0v2.0039h3.4219v9.3281h2.3711v-9.3281h3.4238v-2.0039h-9.2168zm14.037 0 3.8106 11.332h2.2617l3.8535-11.332h-2.4629l-2.4688 8.584h-0.0273l-2.4277-8.584h-2.5391zm11.34 0v11.332h8.6113v-2.0117h-6.2871v-2.9356h5.5293v-2.002h-5.5293v-2.3789h6.0156v-2.0039h-8.3398zm25.152 0v2.0039h3.4238v9.3281h2.3711v-9.3281h3.4219v-2.0039h-9.2168zm-14.742 0.002v11.332h2.3164v-4.4375h2.4473c1.7529 0 1.8516 0.59834 1.8516 2.1426 0 1.1756 0.09 1.7524 0.25 2.2949h2.623v-0.29883c-0.50779-0.19477-0.50782-0.60618-0.50782-2.2617 0-2.1146-0.50234-2.4626-1.4414-2.873 1.1269-0.38259 1.7539-1.4521 1.7539-2.6973 0-0.9808-0.54858-3.2012-3.5605-3.2012h-5.7324zm-104.64 1.7832-15.805 9.9824 1.9414 3.082 11.01-6.9492 0.0293 0.041-7.0547 13.23 2.1992 3.4785 15.818-9.9824-1.9492-3.082-11.275 7.1172-0.02734-0.043 7.1992-13.57-2.0859-3.3047zm106.96 0.17188h2.9551c1.3842 0 1.6562 0.87724 1.6562 1.4824 0 1.1199-0.59886 1.543-1.8301 1.543h-2.7812v-3.0254zm26.271 0.59375h0.0273l1.4062 4.4863h-2.8867l1.4531-4.4863zm69.844 5.0898-2.1484 2.9414 12.604 9.2324-0.0273 0.041-14.621-6.4824-2.2676 3.0879 10.553 12.055-0.0351 0.0352-12.611-9.2305-2.1504 2.9414 15.088 11.047 3.3398-4.5566-9.9277-11.4 0.0351-0.043 13.893 5.9766 3.3652-4.6055-15.088-11.039zm-192.76 9.5644-14.621 11.645 2.4277 3.0606 14.629-11.652-2.4355-3.0527zm5.6777 18.291 0.44531 5.377-4.375 2.5938 5.2109 0.93945 1.0508 4.9863 2.5449-4.5976 5.0918 0.61328-3.4844-3.4922 1.9336-4.8144-4.7578 2.0449-3.6602-3.6504zm173.24 0.42578-3.4863 3.4844-4.8203-1.9258 2.0527 4.7578-3.6445 3.6582 5.3691-0.45898 2.6016 4.375 0.93945-5.2031 4.9727-1.0566-4.5898-2.5391 0.60547-5.0918zm-150.04 11.438-9.0273 16.369 3.1914 1.7656 7.5469-13.682 0.04297 0.0273-4.5645 15.332 3.3535 1.8418 10.607-11.992 0.04297 0.0215-7.5469 13.682 3.1914 1.7617v-0.002l9.0293-16.367-4.9453-2.7324-10.037 11.297-0.04297-0.0293 4.175-14.52-4.994-2.76zm126.58 0.81445-3.957 2.1562-0.0977 6.9356-5.8223-3.7012-4.0898 2.2324 9.3828 5.2871-0.72266 11.283 4-2.1777 0.25586-7.4082 6.1641 3.8965 4.1875-2.2832-10.002-5.5996 0.70117-10.621zm-17.533 9.1836-4.2637 1.4609-1.2715 6.8164-5.1133-4.6387-4.4102 1.502 8.3477 6.8164-2.6309 10.99 4.3144-1.4746 1.5078-7.2539 5.4199 4.8887 4.5078-1.5371-8.9043-7.2266 2.4961-10.344zm-87.795 0.91406-5.7246 17.795 7.709 2.4824c5.8778 1.892 9.1594-3.1225 10.391-6.9414 1.0782-3.3667 1.4824-8.8768-4.5137-10.811l-7.8613-2.5254zm2.6582 4.2441 3.5684 1.1543c1.586 0.50779 3.9579 1.7395 2.2676 6.9844-0.93906 2.9285-2.9429 5.6485-5.9688 4.6816l-3.6172-1.1699 3.75-11.65zm62.275 1.1777c-0.60836-0.007-1.2558 0.046-1.9453 0.16602-4.744 0.82082-7.8962 4.7443-6.7832 11.186 1.106 6.3648 5.1967 9.0624 10.094 8.2207 4.6188-0.8069 6.7477-4.0537 6.8242-8.1856l-3.8476 0.66016c-0.0696 2.3372-1.348 3.8052-3.4766 4.1738-3.2554 0.56344-5.0858-2.185-5.6562-5.4961-0.90428-5.2101 1.6078-6.9135 3.4512-7.2266 3.1859-0.55649 4.1389 1.4184 4.6328 2.4688l3.8457-0.66015c-0.5904-2.3555-2.8802-5.2605-7.1387-5.3066zm-40.979 0.58008c-4.0149 0.13295-7.3588 2.9394-8.2109 8.5938-0.95297 6.3787 2.0723 10.231 6.9902 10.969 4.6397 0.6956 7.6794-1.7179 9.0566-5.6133l-3.8594-0.58398c-0.8069 2.1981-2.4778 3.1852-4.6133 2.8652-3.2763-0.49388-4.1375-3.68-3.6367-6.998 0.77908-5.2309 3.6935-6.0517 5.5508-5.7734 3.1928 0.47301 3.4711 2.65 3.6172 3.8047l3.8594 0.58594c0.20173-2.7685-1.461-6.9075-6.998-7.7422-0.59561-0.0895-1.1823-0.12641-1.7559-0.10742zm20.314 1.334c-4.8205 0.0835-8.5418 3.4702-8.4375 10.002 0.10434 6.4622 3.7276 9.7671 8.7012 9.6836 4.6884-0.0765 7.2972-2.9639 8.0137-7.0332l-3.9082 0.0625c-0.42431 2.2955-1.9198 3.5472-4.0762 3.582-3.3111 0.0556-4.6896-2.941-4.7383-6.3008-0.0904-5.2866 2.6503-6.5804 4.5215-6.6152 3.2346-0.0487 3.8684 2.0511 4.1953 3.1641l3.9023-0.0625c-0.25041-2.7546-2.5812-6.5728-8.1738-6.4824z"/>
 </g>
</svg>